<?xml version="1.0" encoding="UTF-8"?>
<svg xmlns="http://www.w3.org/2000/svg" viewBox="163 3 78 78">
  <defs>
    <style>
      .cls-1 { fill: #fff; }
      .cls-2 { fill: #30363a; }
      .cls-3 { fill: #cb166b; }
    </style>
  </defs>
  <g>
    <path class="cls-3" d="M186.96,73.18h29.79c.96,0,2.13-.68,2.62-1.51l14.9-25.8c.48-.83.48-2.19,0-3.02l-14.9-25.8c-.48-.83-1.65-1.51-2.62-1.51h-29.79c-.96,0-2.13.68-2.62,1.51l-14.9,25.8c-.48.83-.48,2.19,0,3.02l14.9,25.8c.48.83,1.65,1.51,2.62,1.51Z"/>
    <polygon class="cls-1" points="217.58 20.79 229.8 42.88 216.94 42.88 210.46 30.23 217.58 20.79"/>
    <polygon class="cls-1" points="187.41 44.36 194.74 56.91 188.05 69.34 173.71 45.65 187.41 44.36"/>
    <path class="cls-2" d="M186.96,73.18h29.79c.96,0,2.13-.68,2.62-1.51l14.9-25.8c.48-.83.48-2.19,0-3.02l-14.9-25.8c-.48-.83-1.65-1.51-2.62-1.51h-29.79c-.96,0-2.13.68-2.62,1.51l-14.9,25.8c-.48.83-.48,2.19,0,3.02l14.9,25.8c.48.83,1.65,1.51,2.62,1.51ZM197.75,34.24h8.21c.96,0,2.13.68,2.62,1.51l4.1,7.11c.48.83.48,2.19,0,3.02l-4.1,7.11c-.48.83-1.65,1.51-2.62,1.51h-8.21c-.96,0-2.13-.68-2.62-1.51l-4.1-7.11c-.48-.83-.48-2.19,0-3.02l4.1-7.11c.48-.83,1.65-1.51,2.62-1.51ZM197.75,60.2h8.21c.96,0,2.13.68,2.62,1.51l2.46,4.25c.48.83.09,1.51-.87,1.51h-16.61c-.96,0-1.35-.68-.87-1.51l2.46-4.25c.48-.83,1.65-1.51,2.62-1.51ZM213.52,55.84l4.1-7.11c.48-.83,1.65-1.51,2.62-1.51h4.91c.96,0,1.35.68.87,1.51l-8.3,14.38c-.48.83-1.26.83-1.74,0l-2.45-4.25c-.48-.83-.48-2.19,0-3.02ZM217.62,40l-4.1-7.11c-.48-.83-.48-2.19,0-3.02l2.45-4.25c.48-.83,1.26-.83,1.74,0l8.3,14.38c.48.83.09,1.51-.87,1.51h-4.91c-.96,0-2.13-.68-2.62-1.51ZM205.96,28.53h-8.21c-.96,0-2.13-.68-2.62-1.51l-2.46-4.25c-.48-.83-.09-1.51.87-1.51h16.61c.96,0,1.35.68.87,1.51l-2.46,4.25c-.48.83-1.65,1.51-2.62,1.51ZM190.19,32.89l-4.1,7.11c-.48.83-1.65,1.51-2.62,1.51h-4.91c-.96,0-1.35-.68-.87-1.51l8.3-14.38c.48-.83,1.26-.83,1.74,0l2.45,4.25c.48.83.48,2.19,0,3.02ZM186.08,48.73l4.1,7.11c.48.83.48,2.19,0,3.02l-2.45,4.25c-.48.83-1.26.83-1.74,0l-8.3-14.38c-.48-.83-.09-1.51.87-1.51h4.91c.96,0,2.13.68,2.62,1.51Z"/>
  </g>
</svg>
