<?xml version="1.0" encoding="UTF-8"?>
<svg id="_レイヤー_1" data-name="レイヤー 1" xmlns="http://www.w3.org/2000/svg" viewBox="0 0 566 166.76">
  <defs>
    <style>
      .cls-1 {
        fill: #fff;
      }

      .cls-2 {
        fill: #30363a;
      }

      .cls-3 {
        fill: #cb166b;
      }
    </style>
  </defs>
  <g>
    <g>
      <path class="cls-2" d="M227.29,82.7c-1.11-1.25-.72-2.65.84-3.26,14.47-5.63,22.61-18.12,22.61-35.24,0-18.84-13.3-39.2-42.52-39.37-8.73,0-14.59-.04-23.33-.08-6.66-.03-20.04-.06-26.04-.07-1.67,0-3.03,1.35-3.03,3.02v109.99c0,1.67,1.36,3.03,3.03,3.03h20.44c1.67,0,3.03-1.36,3.03-3.03v-30.77c0-1.67,1.36-3.03,3.03-3.03h6.91c1.67,0,3.92,1.02,5.02,2.28l28.12,32.26c1.1,1.26,3.34,2.28,5.02,2.28h27.57"/>
      <g>
        <path class="cls-3" d="M186.96,73.18h29.79c.96,0,2.13-.68,2.62-1.51l14.9-25.8c.48-.83.48-2.19,0-3.02l-14.9-25.8c-.48-.83-1.65-1.51-2.62-1.51h-29.79c-.96,0-2.13.68-2.62,1.51l-14.9,25.8c-.48.83-.48,2.19,0,3.02l14.9,25.8c.48.83,1.65,1.51,2.62,1.51Z"/>
        <polygon class="cls-1" points="217.58 20.79 229.8 42.88 216.94 42.88 210.46 30.23 217.58 20.79"/>
        <polygon class="cls-1" points="187.41 44.36 194.74 56.91 188.05 69.34 173.71 45.65 187.41 44.36"/>
        <path class="cls-2" d="M186.96,73.18h29.79c.96,0,2.13-.68,2.62-1.51l14.9-25.8c.48-.83.48-2.19,0-3.02l-14.9-25.8c-.48-.83-1.65-1.51-2.62-1.51h-29.79c-.96,0-2.13.68-2.62,1.51l-14.9,25.8c-.48.83-.48,2.19,0,3.02l14.9,25.8c.48.83,1.65,1.51,2.62,1.51ZM197.75,34.24h8.21c.96,0,2.13.68,2.62,1.51l4.1,7.11c.48.83.48,2.19,0,3.02l-4.1,7.11c-.48.83-1.65,1.51-2.62,1.51h-8.21c-.96,0-2.13-.68-2.62-1.51l-4.1-7.11c-.48-.83-.48-2.19,0-3.02l4.1-7.11c.48-.83,1.65-1.51,2.62-1.51ZM197.75,60.2h8.21c.96,0,2.13.68,2.62,1.51l2.46,4.25c.48.83.09,1.51-.87,1.51h-16.61c-.96,0-1.35-.68-.87-1.51l2.46-4.25c.48-.83,1.65-1.51,2.62-1.51ZM213.52,55.84l4.1-7.11c.48-.83,1.65-1.51,2.62-1.51h4.91c.96,0,1.35.68.87,1.51l-8.3,14.38c-.48.83-1.26.83-1.74,0l-2.45-4.25c-.48-.83-.48-2.19,0-3.02ZM217.62,40l-4.1-7.11c-.48-.83-.48-2.19,0-3.02l2.45-4.25c.48-.83,1.26-.83,1.74,0l8.3,14.38c.48.83.09,1.51-.87,1.51h-4.91c-.96,0-2.13-.68-2.62-1.51ZM205.96,28.53h-8.21c-.96,0-2.13-.68-2.62-1.51l-2.46-4.25c-.48-.83-.09-1.51.87-1.51h16.61c.96,0,1.35.68.87,1.51l-2.46,4.25c-.48.83-1.65,1.51-2.62,1.51ZM190.19,32.89l-4.1,7.11c-.48.83-1.65,1.51-2.62,1.51h-4.91c-.96,0-1.35-.68-.87-1.51l8.3-14.38c.48-.83,1.26-.83,1.74,0l2.45,4.25c.48.83.48,2.19,0,3.02ZM186.08,48.73l4.1,7.11c.48.83.48,2.19,0,3.02l-2.45,4.25c-.48.83-1.26.83-1.74,0l-8.3-14.38c-.48-.83-.09-1.51.87-1.51h4.91c.96,0,2.13.68,2.62,1.51Z"/>
      </g>
    </g>
    <g>
      <path class="cls-2" d="M292.56,49.09v43.52c0,3.13.52,8.01,4.18,11.31,2.79,2.44,6.44,2.96,9.75,2.96,3.48,0,6.79-.35,9.92-3.31,3.48-3.48,4-7.49,4-10.97v-43.52h27.85v48.57c0,6.61-.52,13.75-7.49,20.89-9.57,9.92-22.98,10.97-33.6,10.97-11.66,0-25.94-1.22-35.16-11.14-5.92-6.27-7.31-13.23-7.31-20.71v-48.57h27.85Z"/>
      <path class="cls-2" d="M393.16,0v56.57c5.05-5.4,12.53-10.1,23.15-10.1,9.58,0,19.84,3.13,27.5,10.44,7.14,6.79,12.71,17.58,12.71,30.81,0,12.36-4.7,23.33-12.53,30.99-7.31,7.14-16.19,10.79-27.33,10.79-5.4,0-15.67-1.04-23.5-11.14v8.53h-27.85V0h27.85ZM422.58,100.62c3.66-3.66,5.4-8.18,5.4-12.18,0-5.22-2.26-10.1-5.4-13.23-2.44-2.44-6.44-5.05-12.36-5.05-5.22,0-9.57,1.91-12.71,5.22-2.79,2.96-5.22,8.18-5.22,12.53,0,4.7,2.26,9.92,5.92,13.23,2.96,2.61,7.48,4.7,12.01,4.7,4,0,8.53-1.39,12.36-5.22Z"/>
      <path class="cls-2" d="M498.46,116.28l-37.6-67.19h32.38l20.71,39.86,20.19-39.86h31.86l-62.49,117.67h-31.16l26.11-50.48Z"/>
    </g>
    <g>
      <path class="cls-2" d="M13.52,92.96c0-1.99-.04-2.9-.23-4.16h4.81c-.15,1.18-.23,2.18-.23,4.01v2.48h10.46c1.68,0,2.48-.04,3.48-.15-.11,1.07-.15,1.87-.15,3.36v11.65c0,1.72.04,2.71.19,3.82h-4.51v-2.29h-9.47v7.75c0,2.29.08,3.4.27,4.74h-4.89c.19-1.41.27-2.6.27-4.74v-7.75H4.51v2.29H0c.15-1.26.19-2.22.19-3.82v-11.69c0-1.41-.04-2.1-.15-3.32,1.11.11,1.91.15,3.44.15h10.04v-2.33ZM4.51,99.33v8.29h9.01v-8.29H4.51ZM27.34,107.62v-8.29h-9.47v8.29h9.47Z"/>
      <path class="cls-2" d="M61.35,91.09c0-.88-.08-1.64-.23-2.41h4.7c-.15.8-.23,1.53-.23,2.37v.5h11.27c1.72,0,2.79-.08,4.01-.23v3.86c-1.26-.15-2.22-.19-3.97-.19h-26.35c-1.72,0-2.67.04-3.93.19v-3.86c1.22.15,2.37.23,4.16.23h10.58v-.46ZM47.68,109.84c0-1.3-.04-2.29-.15-3.48,1.22.12,2.33.15,3.97.15h24.75c1.83,0,2.75-.04,3.74-.15-.11,1.18-.15,2.06-.15,3.44v9.74c0,1.91-.19,2.63-.92,3.28-.76.69-1.91.92-4.58.92-.8,0-.99,0-2.22-.08q-.61-.04-1.22-.04c-.08-1.72-.27-2.6-.84-3.82,2.1.23,3.74.34,4.81.34.73,0,.92-.19.92-.8v-9.51h-24.06v10.16c0,1.95.04,2.86.23,4.2h-4.51c.15-.8.23-2.41.23-4.2v-10.16ZM52.41,99.1c0-1.22-.04-1.87-.11-2.79,1.11.12,2.02.15,3.7.15h15.89c1.53,0,2.33-.04,3.4-.15-.08.99-.11,1.57-.11,2.79v3.28c0,1.49.04,1.91.11,2.83-1.03-.11-1.91-.15-3.59-.15h-15.81c-1.49,0-2.48.04-3.59.15.08-.8.11-1.53.11-2.83v-3.28ZM71.89,116.9c0,1.11.04,1.87.11,2.56-.73-.08-2.14-.11-3.17-.11h-9.62v1.91h-3.93c.11-.73.15-1.57.15-3.09v-4.43c0-1.11-.04-1.76-.11-2.52.88.08,1.68.12,3.09.12h10.46c1.45,0,1.99-.04,3.13-.12-.08.73-.11,1.3-.11,2.44v3.25ZM56.38,101.89h14.78v-2.33h-14.78v2.33ZM59.21,116.33h9.01v-2.1h-9.01v2.1Z"/>
      <path class="cls-2" d="M102.07,100.17c-1.57,3.28-3.09,5.58-5.19,8.02-.99-1.45-1.87-2.37-3.13-3.25,2.86-2.9,5.16-6.91,6.45-11.15.5-1.64.69-2.44.84-3.55l4.35,1.07q-.08.31-.34.99c-.11.27-.11.31-.38,1.26-.19.57-.53,1.53-1.03,2.86h6.22v-2.9c0-1.99-.08-3.17-.27-4.58h4.89c-.15,1.26-.23,2.52-.23,4.54v2.94h7.94c1.95,0,3.59-.08,5.16-.23v4.2c-1.64-.15-3.21-.23-5.04-.23h-8.06v7.03h6.61c1.91,0,3.44-.08,4.7-.23v4.2c-1.38-.15-2.9-.23-4.7-.23h-6.61v8.1h9.17c2.18,0,3.78-.08,5.31-.27v4.35c-1.79-.19-3.17-.27-5.19-.27h-23.37c-1.99,0-3.63.08-5.42.27v-4.35c1.64.19,3.28.27,5.31.27h9.81v-8.1h-5.88c-1.79,0-3.32.08-4.62.23v-4.2c1.22.15,2.48.23,4.58.23h5.92v-7.03h-7.79Z"/>
    </g>
    <g>
      <path class="cls-2" d="M20.71,141.84c-.03-.16-.03-.35-.03-.52,0-2.06,1.64-3.74,3.7-3.74s3.74,1.67,3.74,3.74-1.67,3.74-3.74,3.74c-.35,0-.71-.06-1.03-.16-.06.16-.13.39-.19.68-1.61,6.12-4.12,10.5-8.02,14.14-2.9,2.7-5.73,4.44-10.24,6.31-.71-1.45-1.09-1.93-2.32-3.16,2.87-.9,4.73-1.77,7.15-3.35,5.09-3.35,8.24-7.99,9.92-14.56H4.28c-2.16,0-3.03.06-4.28.22v-3.61c1.29.19,2.19.26,4.35.26h16.36ZM22.22,141.32c0,1.19.97,2.19,2.16,2.19s2.19-1,2.19-2.19-.97-2.19-2.19-2.19-2.16,1-2.16,2.19Z"/>
      <path class="cls-2" d="M36.49,162.7v2.22h-3.51c.1-.87.16-2.03.16-3.93v-16.04c0-1.64-.03-2.45-.16-3.35,1.58.1,2.19.13,3.99.13h15.26c1.93,0,2.74-.03,3.9-.16-.1.87-.13,1.77-.13,3.38v16c0,2.12.03,3.12.13,3.96h-3.48v-2.22h-16.17ZM52.65,144.77h-16.17v14.91h16.17v-14.91Z"/>
      <path class="cls-2" d="M76.19,139.36q-.26.35-.68,1.22c-.68,1.48-.9,2-1.32,2.7.26-.03.71-.1,1.38-.1l6.41-.1c1.19-.03,1.48-.06,2.06-.26l2.7,2.87c-.32.42-.39.64-.74,1.77-1,3.22-3.41,7.99-6.18,11.17-2.96,3.38-6.54,5.96-11.37,8.11-.74-1.32-1.09-1.77-2.25-2.77,4.89-2,8.11-4.22,11.14-7.7,2.38-2.74,4.25-6.25,5.47-10.24l-10.18.16c-2.16,3.32-4.6,5.96-7.57,8.24-.84-1.13-1.22-1.48-2.61-2.32,3.57-2.41,5.93-5.02,8.24-9.15,1.09-1.96,1.64-3.28,1.8-4.44l3.67.8ZM85.69,138.43c1.51,1.71,2.22,2.74,3.35,4.83l-2,1.1c-1.06-2-1.96-3.35-3.35-4.93l2-1ZM89.46,136.59c1.55,1.71,2.22,2.67,3.32,4.7l-1.96,1.13c-1-1.87-1.9-3.22-3.28-4.83l1.93-1Z"/>
      <path class="cls-2" d="M96.9,147.67c1.45.16,2.35.22,4.44.22h15.39c1.67,0,2.19-.03,2.99-.26l1.58,1.8c-.29.52-.45.87-.87,2.03-1.77,4.8-4.19,8.24-7.63,10.82-2.29,1.67-4.38,2.74-8.15,4.09-.58-1.32-.87-1.77-2.06-3.12,3.96-.97,6.6-2.22,9.11-4.41,2.45-2.09,3.83-4.15,5.28-7.99h-15.71c-2.54,0-3.25.03-4.38.16v-3.35ZM99.64,140.03c1.38.19,1.74.23,4.03.23h10.21c1.93,0,2.58-.03,4.06-.23v3.38c-1.26-.13-2.13-.16-4.03-.16h-10.27c-1.71,0-2.42.03-3.99.16v-3.38Z"/>
      <path class="cls-2" d="M130.68,157.71c7.83,1.13,13.85,2.61,21.06,5.22l-1.19,3.35c-3.22-1.42-6.09-2.35-11.21-3.57-3.99-.96-6.57-1.48-9.95-1.9l1.29-3.09ZM133.23,148.66c5.18.71,10.14,1.84,16.42,3.74l-1.06,3.29c-4.6-1.74-10.53-3.16-16.62-3.96l1.26-3.06ZM133.78,139.81c5.83.71,10.01,1.58,16.91,3.51l-1.09,3.32c-4.89-1.71-11.56-3.16-17.07-3.74l1.26-3.09Z"/>
      <path class="cls-2" d="M161.37,161.42c2.61-.1,6.5-1.09,9.47-2.41,4.03-1.77,7.05-4.22,9.6-7.82,1.45-2.13,2.38-3.86,3.38-6.51,1.06,1.32,1.48,1.71,2.8,2.64-2.67,5.83-5.7,9.56-10.05,12.49-3.25,2.22-7.25,3.8-12.17,4.83-1.22.26-1.35.29-2.03.52l-1-3.74ZM163.82,141.45c3.67,2.29,5.7,3.83,8.11,6.15l-2.32,2.87c-2.48-2.64-5.09-4.73-8.02-6.44l2.22-2.58Z"/>
      <path class="cls-2" d="M205.01,139.36q-.26.35-.68,1.22c-.68,1.48-.9,2-1.32,2.7.26-.03.71-.1,1.38-.1l6.41-.1c1.19-.03,1.48-.06,2.06-.26l2.7,2.87c-.32.42-.39.64-.74,1.77-1,3.22-3.41,7.99-6.18,11.17-2.96,3.38-6.54,5.96-11.37,8.11-.74-1.32-1.09-1.77-2.25-2.77,4.89-2,8.11-4.22,11.14-7.7,2.38-2.74,4.25-6.25,5.47-10.24l-10.18.16c-2.16,3.32-4.6,5.96-7.57,8.24-.84-1.13-1.22-1.48-2.61-2.32,3.57-2.41,5.93-5.02,8.24-9.15,1.09-1.96,1.64-3.28,1.8-4.44l3.67.8ZM214.51,138.43c1.51,1.71,2.22,2.74,3.35,4.83l-2,1.1c-1.06-2-1.96-3.35-3.35-4.93l2-1ZM218.28,136.59c1.55,1.71,2.22,2.67,3.32,4.7l-1.96,1.13c-1-1.87-1.9-3.22-3.28-4.83l1.93-1Z"/>
      <path class="cls-2" d="M230.55,162.99c-2.42,0-2.99.03-4.09.16v-3.54c1.19.19,1.8.23,4.15.23h14.56v-14.65h-13.94c-2.42,0-3.03.03-4.28.16v-3.54c1.32.19,1.67.23,4.32.23h14.72q1.61,0,2.7-.07c-.06.9-.06,1.26-.06,2.61v16.91c0,1.61.03,2.35.16,3.45h-3.61v-1.93h-14.62Z"/>
      <path class="cls-2" d="M257.99,161.42c2.61-.1,6.5-1.09,9.47-2.41,4.03-1.77,7.05-4.22,9.6-7.82,1.45-2.13,2.38-3.86,3.38-6.51,1.06,1.32,1.48,1.71,2.8,2.64-2.67,5.83-5.7,9.56-10.05,12.49-3.25,2.22-7.25,3.8-12.17,4.83-1.22.26-1.35.29-2.03.52l-1-3.74ZM260.43,141.45c3.67,2.29,5.7,3.83,8.11,6.15l-2.32,2.87c-2.48-2.64-5.09-4.73-8.02-6.44l2.22-2.58Z"/>
      <path class="cls-2" d="M304.42,151.56c-.03,1.22-.23,2.64-.48,4.02-.68,3.35-2.09,5.86-4.38,7.79-1.45,1.19-3.06,2.09-5.7,3.16-.64-1.35-1-1.83-2.16-2.96,3.99-1.26,6.5-3.09,7.86-5.76.77-1.48,1.29-3.9,1.39-6.25h-7.99c-2.22,0-3.03.03-4.19.16v-3.35c1.29.19,2.29.26,4.25.26h18.29c2,0,3.16-.06,4.28-.23v3.32c-1.03-.1-2.48-.16-4.25-.16h-6.92ZM291.99,140.32c1.13.19,2.09.26,4.25.26h11.88c2.22,0,3.16-.06,4.28-.26v3.41c-.9-.13-2.7-.19-4.25-.19h-11.98c-1.9,0-3.22.06-4.19.16v-3.38Z"/>
      <path class="cls-2" d="M345.26,165.83c-2.54-3.22-6.09-6.6-10.05-9.76-3.74,4.22-7.24,6.92-12.3,9.43-.71-1.39-1.03-1.8-2.19-2.99,2.48-.97,4.03-1.84,6.47-3.57,4.96-3.57,8.95-8.5,11.11-13.69q.1-.29.19-.48t.13-.29c-.39.03-.58.03-1,.03l-9.34.16c-2,.03-2.61.07-4.12.26l-.1-3.51c1.09.13,1.9.19,3.32.19h.87l10.72-.16c1.55,0,1.84-.06,2.54-.32l1.8,1.9c-.39.42-.64.87-.96,1.64-1.55,3.57-3.19,6.41-5.15,8.89,4.06,2.93,6.63,5.19,10.72,9.31l-2.67,2.96Z"/>
      <path class="cls-2" d="M359.4,166.12c.16-1.39.19-2.19.19-4.12v-19.16c0-2.22-.03-2.96-.19-3.86h3.8c-.13,1.03-.19,2.13-.19,3.93v5.44c4.61,1.61,9.11,3.74,14.49,6.79l-1.87,3.19c-1.45-1-2.29-1.51-3.99-2.45-2.45-1.32-5.96-3.06-7.7-3.8q-.55-.23-1.03-.55,0,.45.06,1.26c0,.29.03,1.29.03,1.61v7.6c0,1.71.07,2.93.19,4.12h-3.8Z"/>
      <path class="cls-2" d="M400.14,164.71h-16.23l8.37-10.14c.83-1.01,2.1-2.61,2.9-3.77.69-1.01,1.27-2.07,1.27-3.48,0-2.03-1.34-3.91-4.02-3.91s-4.13,2.1-4.27,4.38h-3.55c.11-2.35,1.09-4.24,2.03-5.29.87-.98,2.61-2.35,5.65-2.35,5.14,0,7.79,3.51,7.79,7.28,0,1.99-.76,3.62-1.74,5.07-.87,1.3-1.99,2.64-3.44,4.35l-3.77,4.46h9.02v3.4Z"/>
      <path class="cls-2" d="M408.08,162.5c-2.54-2.9-3.08-6.7-3.08-9.85s.54-6.99,3.08-9.89c1.52-1.74,3.33-2.61,5.47-2.61s3.95.87,5.47,2.61c2.54,2.9,3.08,6.77,3.08,9.89s-.54,6.96-3.08,9.85c-1.52,1.74-3.3,2.61-5.47,2.61s-3.95-.87-5.47-2.61ZM410.29,145.4c-1.34,1.99-1.67,5.11-1.67,7.21s.33,5.22,1.67,7.24c1.05,1.59,2.32,1.99,3.26,1.99s2.21-.4,3.26-1.99c1.34-2.03,1.67-5.11,1.67-7.24s-.33-5.22-1.67-7.21c-1.05-1.59-2.32-1.99-3.26-1.99s-2.21.4-3.26,1.99Z"/>
      <path class="cls-2" d="M441.3,164.71h-16.23l8.37-10.14c.83-1.01,2.1-2.61,2.9-3.77.69-1.01,1.27-2.07,1.27-3.48,0-2.03-1.34-3.91-4.02-3.91s-4.13,2.1-4.27,4.38h-3.55c.11-2.35,1.09-4.24,2.03-5.29.87-.98,2.61-2.35,5.65-2.35,5.14,0,7.79,3.51,7.79,7.28,0,1.99-.76,3.62-1.74,5.07-.87,1.3-1.99,2.64-3.44,4.35l-3.77,4.46h9.02v3.4Z"/>
      <path class="cls-2" d="M458.87,141.37l-5.95,7.52c.56-.11,1.05-.15,1.57-.15,2.92,0,4.75,1.27,5.76,2.32,1.35,1.42,2.21,3.55,2.21,5.83s-.79,4.64-2.47,6.28c-2.09,2.06-4.79,2.36-6.43,2.36-2.17,0-4.53-.45-6.43-2.43-1.31-1.38-2.17-3.22-2.17-5.65,0-1.83.41-3.25,1.2-4.79.94-1.87,1.91-2.99,3.03-4.45l6.92-8.9,2.77,2.06ZM450.15,153.38c-.82.79-1.46,2.13-1.46,3.7,0,1.27.49,2.77,1.46,3.7.79.75,2.28,1.38,3.59,1.38,1.16,0,2.58-.45,3.52-1.38.94-.93,1.46-2.43,1.46-3.7s-.52-2.77-1.46-3.7c-.86-.86-2.24-1.38-3.52-1.38s-2.69.52-3.59,1.38Z"/>
    </g>
    <g>
      <path class="cls-2" d="M98.79,57.19v17.79h-6.6v-17.79h-2.6v-5.62h2.6v-8h6.6v8h4.54v5.62h-4.54Z"/>
      <path class="cls-2" d="M106.8,35.57h6.6v19.03c1.24-1.73,3.46-3.78,7.25-3.78,2.05,0,5.08.6,6.92,2.87,1.62,2,1.84,4.33,1.84,6.6v14.71h-6.6v-12.76c0-1.3-.05-3.35-1.24-4.6-1.03-1.08-2.43-1.19-3.08-1.19-1.73,0-3.08.59-4.06,2.05-.97,1.51-1.03,3.19-1.03,4.54v11.95h-6.6v-39.42Z"/>
    </g>
  </g>
  <g>
    <path class="cls-2" d="M9.33,19.6H0v-10.88h21.96v64.82h-12.63V19.6Z"/>
    <path class="cls-2" d="M69.98,11.92l-15.74,20.51c1.94-.88,4.28-1.56,7.09-1.56,4.76,0,10.5,1.85,14.29,5.54,3.4,3.21,6.12,8.75,6.12,15.55,0,5.44-1.55,10.88-5.93,15.65-5.54,6.03-11.86,7.39-18.46,7.39s-13.12-1.26-18.46-6.61c-3.5-3.5-6.32-8.46-6.32-15.74,0-7.87,3.6-14.19,8.16-20.21L59.78,6.97l10.2,4.96ZM65.61,61.59c1.55-1.56,3.5-4.28,3.5-8.55,0-3.89-1.36-6.8-3.6-8.94-2.43-2.33-5.15-3.11-8.36-3.11-3.79,0-6.32,1.26-8.46,3.5-2.33,2.43-3.5,4.86-3.5,8.45s1.17,6.51,3.6,8.75c1.65,1.55,4.47,3.21,8.36,3.21,4.08,0,6.8-1.65,8.46-3.3Z"/>
  </g>
</svg>